<?xml version="1.0" standalone="no"?>
<!DOCTYPE svg PUBLIC "-//W3C//DTD SVG 20010904//EN"
 "http://www.w3.org/TR/2001/REC-SVG-20010904/DTD/svg10.dtd">
<svg version="1.0" xmlns="http://www.w3.org/2000/svg"
 width="218.000000pt" height="218.000000pt" viewBox="0 0 218.000000 218.000000"
 preserveAspectRatio="xMidYMid meet">
<metadata>
Created by potrace 1.14, written by Peter Selinger 2001-2017
</metadata>
<g transform="translate(0.000000,218.000000) scale(0.100000,-0.100000)"
fill="#000000" stroke="none">
<path d="M479 1846 c-2 -3 -26 -7 -53 -11 -79 -9 -99 -16 -142 -49 -72 -54
-104 -133 -119 -296 -9 -85 -9 -711 -1 -770 3 -25 8 -65 10 -90 5 -56 32 -125
65 -168 28 -35 111 -81 158 -88 15 -2 55 -7 88 -11 139 -18 1153 -8 1185 12 3
2 19 6 34 9 94 17 164 112 182 248 3 24 9 60 14 80 10 50 11 721 0 779 -4 24
-13 75 -20 113 -13 70 -27 106 -57 142 -22 25 -93 79 -93 70 0 -4 -8 -2 -19 3
-10 6 -36 13 -57 17 -43 7 -1168 17 -1175 10z"/>
</g>
</svg>
